# xmcd CD database file
#
# Track frame offsets:
#	150
#	3320
#	19890
#	39120
#	41885
#	65075
#	82942
#	121140
#	139322
#	140570
#	157347
#	174980
#	189610
#	221162
#	239212
#	264325
#	275512
#	299762
#	316082
#
# Disc length: 4344 seconds
#
# Revision: 0
# Processed by: cddbd v1.4PL0 Copyright (c) Steve Scherf et al.
# Submitted via: CDex 1.40Release
#
DISCID=2510f613
DTITLE=Blues max - Forever bruno
DYEAR=2002
DGENRE=Blues
TTITLE0=Ganz und gar
TTITLE1=Servila
TTITLE2=Tequila
TTITLE3=He nu de so
TTITLE4=Bruno
TTITLE5=Rhytmus und melodie
TTITLE6=Angela
TTITLE7=Si si si
TTITLE8=Na ja
TTITLE9=Depotbrand
TTITLE10=Musiker am maentig
TTITLE11=Nueme weh
TTITLE12=Spitex
TTITLE13=Saturday night fever
TTITLE14=Wie en ofe ohni stube
TTITLE15=Finale
TTITLE16=Hacienda
TTITLE17=Fuer maria
TTITLE18=Fritz
EXTD=YEAR: 2002 ID3G: 0
EXTT0=
EXTT1=
EXTT2=
EXTT3=
EXTT4=
EXTT5=
EXTT6=
EXTT7=
EXTT8=
EXTT9=
EXTT10=
EXTT11=
EXTT12=
EXTT13=
EXTT14=
EXTT15=
EXTT16=
EXTT17=
EXTT18=
PLAYORDER=
